<svg width="25" height="32" viewBox="0 0 25 32" fill="none" xmlns="http://www.w3.org/2000/svg">
<path d="M24.1003 7.7745L16.6005 0.274687C16.4244 0.0992023 16.1861 0.000461174 15.9375 0H2.8125C1.26169 0 0 1.26169 0 2.8125V29.1875C0 30.7383 1.26169 32 2.8125 32H21.5625C23.1133 32 24.375 30.7383 24.375 29.1875V8.4375C24.375 8.18237 24.2666 7.94069 24.1003 7.7745ZM16.875 3.20081L21.1742 7.5H17.8125C17.2956 7.5 16.875 7.07944 16.875 6.5625V3.20081ZM21.5625 30.125H2.8125C2.29556 30.125 1.875 29.7044 1.875 29.1875V2.8125C1.875 2.29556 2.29556 1.875 2.8125 1.875H15V6.5625C15 8.11331 16.2617 9.375 17.8125 9.375H22.5V29.1875C22.5 29.7044 22.0794 30.125 21.5625 30.125Z" fill="#044192"/>
<path d="M17.8125 13.25H6.5625C6.04475 13.25 5.625 13.6697 5.625 14.1875V25.4375C5.625 25.9552 6.04475 26.375 6.5625 26.375H17.8125C18.3302 26.375 18.75 25.9552 18.75 25.4375V14.1875C18.75 13.6697 18.3302 13.25 17.8125 13.25ZM7.5 18.875H11.25V20.75H7.5V18.875ZM13.125 18.875H16.875V20.75H13.125V18.875ZM16.875 17H13.125V15.125H16.875V17ZM11.25 15.125V17H7.5V15.125H11.25ZM7.5 22.625H11.25V24.5H7.5V22.625ZM13.125 24.5V22.625H16.875V24.5H13.125Z" fill="#044192"/>
</svg>
