<svg width="32" height="21" viewBox="0 0 32 21" fill="none" xmlns="http://www.w3.org/2000/svg">
<path d="M27.6755 8.94025C28.6126 8.28176 29.2331 7.18639 29.2331 5.95172C29.2331 3.93194 27.5995 2.29838 25.5797 2.29838C23.56 2.29838 21.9264 3.93194 21.9264 5.95172C21.9264 7.18639 22.5406 8.28176 23.484 8.94025C22.6799 9.21884 21.9454 9.64939 21.3249 10.2066C20.4701 9.47843 19.4634 8.92125 18.3617 8.59201C19.6977 7.78156 20.5968 6.30629 20.5968 4.62841C20.5968 2.07044 18.5263 0 15.9683 0C13.4104 0 11.3399 2.07677 11.3399 4.62841C11.3399 6.30629 12.2327 7.78156 13.575 8.59201C12.486 8.92125 11.4919 9.4721 10.6435 10.1876C10.023 9.64305 9.30115 9.21884 8.5097 8.94658C9.44678 8.28809 10.0673 7.19272 10.0673 5.95805C10.0673 3.93827 8.43372 2.30471 6.41393 2.30471C4.39414 2.30471 2.76059 3.93827 2.76059 5.95805C2.76059 7.19272 3.37475 8.28809 4.31816 8.94658C1.80451 9.81401 0 12.201 0 15.0059V15.4238C0 15.4365 0.0126632 15.4492 0.0253265 15.4492H7.7689C7.72458 15.7974 7.69925 16.1583 7.69925 16.5192V16.9497C7.69925 18.8112 9.20617 20.3182 11.0677 20.3182H20.8817C22.7432 20.3182 24.2501 18.8112 24.2501 16.9497V16.5192C24.2501 16.1583 24.2248 15.7974 24.1805 15.4492H31.9747C31.9873 15.4492 32 15.4365 32 15.4238V15.0059C31.9873 12.1947 30.1892 9.80768 27.6755 8.94025ZM22.9395 5.94539C22.9395 4.48912 24.1235 3.3051 25.5797 3.3051C27.036 3.3051 28.22 4.48912 28.22 5.94539C28.22 7.38267 27.0613 8.55402 25.6304 8.58568H25.5291C24.0918 8.56035 22.9395 7.389 22.9395 5.94539ZM12.3403 4.62841C12.3403 2.63395 13.9612 1.01306 15.9557 1.01306C17.9501 1.01306 19.571 2.63395 19.571 4.62841C19.571 6.55323 18.0578 8.1298 16.1646 8.23744H15.7467C13.8536 8.1298 12.3403 6.55323 12.3403 4.62841ZM3.75465 5.94539C3.75465 4.48912 4.93866 3.3051 6.39494 3.3051C7.85121 3.3051 9.03522 4.48912 9.03522 5.94539C9.03522 7.38267 7.87653 8.55402 6.44559 8.58568H6.34428C4.91334 8.56035 3.75465 7.389 3.75465 5.94539ZM7.94618 14.4298H1.02572C1.31065 11.7325 3.59003 9.61773 6.35695 9.59873H6.43292C7.7499 9.60507 8.95291 10.0926 9.88366 10.8841C8.9719 11.8718 8.29442 13.0875 7.94618 14.4298ZM23.2244 16.9497C23.2244 18.2477 22.167 19.3051 20.869 19.3051H11.055C9.75702 19.3051 8.69964 18.2477 8.69964 16.9497V16.5192C8.69964 12.5873 11.8401 9.3708 15.7467 9.25683C15.8164 9.26316 15.8924 9.26316 15.962 9.26316C16.0317 9.26316 16.1076 9.26316 16.1773 9.25683C20.0839 9.3708 23.2244 12.5873 23.2244 16.5192V16.9497ZM23.9778 14.4298C23.6296 13.0938 22.9648 11.8971 22.0594 10.9094C22.9964 10.0989 24.2121 9.6114 25.5417 9.59873H25.6177C28.3846 9.61773 30.664 11.7325 30.949 14.4298H23.9778Z" fill="#044192"/>
</svg>
