<svg width="32" height="32" viewBox="0 0 32 32" fill="none" xmlns="http://www.w3.org/2000/svg">
<path d="M30.6613 14.4H28.8V11.0571C28.7994 10.6708 28.6457 10.3005 28.3726 10.0274C28.0995 9.75426 27.7292 9.60056 27.3429 9.6H25.6V8.31253L25.336 8.04853L25.3355 8.04747L21.4443 4.15627L17.2875 0H4.26667V5.86667H1.45707C1.0708 5.86723 0.700519 6.02092 0.427388 6.29405C0.154257 6.56719 0.000564303 6.93747 0 7.32373L0 30.6235H0.0032C0.000533333 30.9237 0.0938667 31.2176 0.2816 31.4635C0.408781 31.6309 0.57311 31.7665 0.761637 31.8596C0.950164 31.9527 1.15774 32.0008 1.368 32H25.2395C25.856 32 26.3989 31.5845 26.5461 31.0331L32 16.0795V15.9851C32 15.0667 31.4368 14.4 30.6613 14.4ZM27.3429 10.6667C27.5579 10.6667 27.7333 10.8416 27.7333 11.0571V14.4H25.6V10.6667H27.3429ZM17.6 1.82133L23.7792 8H17.6V1.82133ZM5.33333 1.06667H16.5333V9.06667H24.5333V14.4H6.78987C6.7136 14.4 6.6384 14.4064 6.5648 14.4187C6.04533 14.5051 5.61227 14.8837 5.4832 15.3669L5.33333 15.7787V1.06667ZM1.06667 7.32373C1.06667 7.10827 1.24213 6.93333 1.45707 6.93333H4.26667V18.6853L1.06667 27.4128V7.32373ZM25.5301 30.7109C25.5128 30.7748 25.475 30.8311 25.4224 30.8713C25.3699 30.9115 25.3056 30.9333 25.2395 30.9333H1.368C1.32167 30.9338 1.27588 30.9233 1.23436 30.9027C1.19284 30.8822 1.15677 30.8521 1.12907 30.8149C1.09547 30.7712 1.04373 30.6784 1.06347 30.5973L4.26667 21.8123V21.8149L6.48533 15.7328L6.4992 15.6891C6.51661 15.6253 6.55447 15.569 6.60699 15.5288C6.6595 15.4886 6.72375 15.4668 6.78987 15.4667H30.6613C30.864 15.4667 30.9157 15.7579 30.9291 15.9035L25.5301 30.7109Z" fill="#044192"/>
<path d="M8.53333 9.06563H13.8667C14.0081 9.06563 14.1438 9.00944 14.2438 8.90942C14.3438 8.8094 14.4 8.67374 14.4 8.53229C14.4 8.39084 14.3438 8.25519 14.2438 8.15517C14.1438 8.05515 14.0081 7.99896 13.8667 7.99896H8.53333C8.39188 7.99896 8.25623 8.05515 8.15621 8.15517C8.05619 8.25519 8 8.39084 8 8.53229C8 8.67374 8.05619 8.8094 8.15621 8.90942C8.25623 9.00944 8.39188 9.06563 8.53333 9.06563ZM8.53333 5.33229H13.8667C14.0081 5.33229 14.1438 5.2761 14.2438 5.17608C14.3438 5.07606 14.4 4.94041 14.4 4.79896C14.4 4.65751 14.3438 4.52185 14.2438 4.42183C14.1438 4.32182 14.0081 4.26562 13.8667 4.26562H8.53333C8.39188 4.26562 8.25623 4.32182 8.15621 4.42183C8.05619 4.52185 8 4.65751 8 4.79896C8 4.94041 8.05619 5.07606 8.15621 5.17608C8.25623 5.2761 8.39188 5.33229 8.53333 5.33229ZM8.53333 12.799H21.3333C21.4748 12.799 21.6104 12.7428 21.7105 12.6427C21.8105 12.5427 21.8667 12.4071 21.8667 12.2656C21.8667 12.1242 21.8105 11.9885 21.7105 11.8885C21.6104 11.7885 21.4748 11.7323 21.3333 11.7323H8.53333C8.39188 11.7323 8.25623 11.7885 8.15621 11.8885C8.05619 11.9885 8 12.1242 8 12.2656C8 12.4071 8.05619 12.5427 8.15621 12.6427C8.25623 12.7428 8.39188 12.799 8.53333 12.799Z" fill="#044192"/>
</svg>
