<svg width="32" height="32" viewBox="0 0 32 32" fill="none" xmlns="http://www.w3.org/2000/svg">
<path d="M15.8587 32C15.7601 32.0001 15.6627 31.9783 15.5736 31.9363C15.4844 31.8942 15.4057 31.8329 15.3431 31.7568C15.2805 31.6807 15.2355 31.5916 15.2115 31.496C15.1874 31.4004 15.1849 31.3007 15.204 31.204L16.1467 26.4907C16.1717 26.361 16.2354 26.242 16.3293 26.1493L26.7 15.7787C27.0756 15.4047 27.584 15.1947 28.114 15.1947C28.644 15.1947 29.1524 15.4047 29.528 15.7787L31.4133 17.664C31.7879 18.0392 31.9984 18.5478 31.9984 19.078C31.9984 19.6082 31.7879 20.1168 31.4133 20.492L21.0427 30.8627C20.9496 30.9562 20.8308 31.0198 20.7013 31.0453L15.988 31.988C15.9453 31.996 15.9021 32 15.8587 32ZM17.416 26.948L16.7093 30.4827L20.244 29.776L30.472 19.548C30.597 19.423 30.6672 19.2534 30.6672 19.0767C30.6672 18.8999 30.597 18.7304 30.472 18.6053L28.5867 16.72C28.4616 16.595 28.2921 16.5248 28.1153 16.5248C27.9386 16.5248 27.769 16.595 27.644 16.72L17.416 26.948ZM12.6667 28H3.33333C2.4495 27.9993 1.60206 27.6479 0.977091 27.0229C0.352122 26.3979 0.000706223 25.5505 0 24.6667L0 7.33333C0 5.49467 1.49467 4 3.33333 4H6C6.17681 4 6.34638 4.07024 6.4714 4.19526C6.59643 4.32029 6.66667 4.48986 6.66667 4.66667C6.66667 4.84348 6.59643 5.01305 6.4714 5.13807C6.34638 5.2631 6.17681 5.33333 6 5.33333H3.33333C2.23067 5.33333 1.33333 6.23067 1.33333 7.33333V24.6667C1.33333 25.7693 2.23067 26.6667 3.33333 26.6667H12.6667C12.8435 26.6667 13.013 26.7369 13.1381 26.8619C13.2631 26.987 13.3333 27.1565 13.3333 27.3333C13.3333 27.5101 13.2631 27.6797 13.1381 27.8047C13.013 27.9298 12.8435 28 12.6667 28ZM22 16C21.8232 16 21.6536 15.9298 21.5286 15.8047C21.4036 15.6797 21.3333 15.5101 21.3333 15.3333V7.33333C21.3333 6.23067 20.436 5.33333 19.3333 5.33333H16.6667C16.4899 5.33333 16.3203 5.2631 16.1953 5.13807C16.0702 5.01305 16 4.84348 16 4.66667C16 4.48986 16.0702 4.32029 16.1953 4.19526C16.3203 4.07024 16.4899 4 16.6667 4H19.3333C21.172 4 22.6667 5.49467 22.6667 7.33333V15.3333C22.6667 15.5101 22.5964 15.6797 22.4714 15.8047C22.3464 15.9298 22.1768 16 22 16Z" fill="#044192"/>
<path d="M15.3333 8H7.33333C6.23067 8 5.33333 7.10267 5.33333 6V3.33333C5.33333 3.15652 5.40357 2.98695 5.5286 2.86193C5.65362 2.7369 5.82319 2.66667 6 2.66667H8.06667C8.376 1.14667 9.724 0 11.3333 0C12.9427 0 14.2907 1.14667 14.6 2.66667H16.6667C16.8435 2.66667 17.013 2.7369 17.1381 2.86193C17.2631 2.98695 17.3333 3.15652 17.3333 3.33333V6C17.3333 7.10267 16.436 8 15.3333 8ZM6.66667 4V6C6.66667 6.36667 6.96667 6.66667 7.33333 6.66667H15.3333C15.7 6.66667 16 6.36667 16 6V4H14C13.8232 4 13.6536 3.92976 13.5286 3.80474C13.4036 3.67971 13.3333 3.51014 13.3333 3.33333C13.3333 2.23067 12.436 1.33333 11.3333 1.33333C10.2307 1.33333 9.33333 2.23067 9.33333 3.33333C9.33333 3.51014 9.2631 3.67971 9.13807 3.80474C9.01305 3.92976 8.84348 4 8.66667 4H6.66667ZM18 12H4.66667C4.48986 12 4.32029 11.9298 4.19526 11.8047C4.07024 11.6797 4 11.5101 4 11.3333C4 11.1565 4.07024 10.987 4.19526 10.8619C4.32029 10.7369 4.48986 10.6667 4.66667 10.6667H18C18.1768 10.6667 18.3464 10.7369 18.4714 10.8619C18.5964 10.987 18.6667 11.1565 18.6667 11.3333C18.6667 11.5101 18.5964 11.6797 18.4714 11.8047C18.3464 11.9298 18.1768 12 18 12ZM18 16H4.66667C4.48986 16 4.32029 15.9298 4.19526 15.8047C4.07024 15.6797 4 15.5101 4 15.3333C4 15.1565 4.07024 14.987 4.19526 14.8619C4.32029 14.7369 4.48986 14.6667 4.66667 14.6667H18C18.1768 14.6667 18.3464 14.7369 18.4714 14.8619C18.5964 14.987 18.6667 15.1565 18.6667 15.3333C18.6667 15.5101 18.5964 15.6797 18.4714 15.8047C18.3464 15.9298 18.1768 16 18 16ZM18 20H4.66667C4.48986 20 4.32029 19.9298 4.19526 19.8047C4.07024 19.6797 4 19.5101 4 19.3333C4 19.1565 4.07024 18.987 4.19526 18.8619C4.32029 18.7369 4.48986 18.6667 4.66667 18.6667H18C18.1768 18.6667 18.3464 18.7369 18.4714 18.8619C18.5964 18.987 18.6667 19.1565 18.6667 19.3333C18.6667 19.5101 18.5964 19.6797 18.4714 19.8047C18.3464 19.9298 18.1768 20 18 20Z" fill="#044192"/>
</svg>
