<?xml version="1.0" encoding="UTF-8"?>
<svg id="Layer_1" data-name="Layer 1" xmlns="http://www.w3.org/2000/svg" viewBox="0 0 256 256">
  <defs>
    <style>
      .cls-1 {
        fill: #044192;
      }
    </style>
  </defs>
  <path class="cls-1" d="M68.18,164.62c-6.5,0-12.11-1.04-16.83-3.11-4.71-2.07-8.6-4.83-11.67-8.27-3.06-3.44-5.33-7.35-6.79-11.74-1.46-4.38-2.19-8.88-2.19-13.5s.73-9.12,2.19-13.5c1.46-4.38,3.72-8.29,6.79-11.74,3.06-3.44,6.95-6.2,11.67-8.27,4.71-2.07,10.32-3.11,16.83-3.11s12.11,1.04,16.83,3.11c4.71,2.07,8.6,4.83,11.67,8.27,3.06,3.44,5.32,7.35,6.79,11.74,1.46,4.38,2.19,8.89,2.19,13.5s-.73,9.12-2.19,13.5c-1.46,4.38-3.72,8.3-6.79,11.74-3.06,3.44-6.95,6.2-11.67,8.27-4.71,2.07-10.32,3.11-16.83,3.11Z"/>
  <path class="cls-1" d="M113.53,111.39s0,0,0,0h80.49v-16.42h-97.51c2.11.82,4.06,1.85,5.85,3.13,4.95,3.54,8.67,7.97,11.17,13.29Z"/>
  <path class="cls-1" d="M116.52,135.86h108.77v-16.42h-109.03c.65,2.95.97,6.02.95,9.2-.02,2.48-.25,4.88-.68,7.22Z"/>
  <path class="cls-1" d="M101.58,159.18c-.6.41-1.22.79-1.85,1.15h83.65v-16.42h-69.23c-.28.67-.58,1.33-.9,1.98-2.59,5.33-6.48,9.76-11.66,13.29Z"/>
</svg>