<?xml version="1.0" encoding="UTF-8"?>
<svg id="Layer_1" data-name="Layer 1" xmlns="http://www.w3.org/2000/svg" viewBox="0 0 512 512">
  <defs>
    <style>
      .cls-1 {
        fill: #044192;
      }
    </style>
  </defs>
  <path class="cls-1" d="M143.49,324.88c-12.23,0-22.79-1.95-31.65-5.85-8.87-3.9-16.18-9.08-21.94-15.56-5.76-6.47-10.02-13.83-12.77-22.07-2.75-8.24-4.12-16.71-4.12-25.4s1.37-17.15,4.12-25.4c2.75-8.24,7-15.6,12.77-22.07,5.76-6.47,13.07-11.66,21.94-15.56,8.86-3.9,19.41-5.85,31.65-5.85s22.78,1.95,31.65,5.85c8.86,3.9,16.18,9.09,21.94,15.56,5.76,6.47,10.01,13.83,12.77,22.07,2.75,8.24,4.12,16.71,4.12,25.4s-1.37,17.15-4.12,25.4c-2.75,8.24-7.01,15.6-12.77,22.07-5.76,6.47-13.08,11.66-21.94,15.56-8.87,3.9-19.41,5.85-31.65,5.85Z"/>
  <path class="cls-1" d="M228.78,224.75s0,0,0,0h151.4v-30.88h-183.41c3.97,1.53,7.64,3.48,11,5.88,9.31,6.65,16.31,14.99,21.01,25Z"/>
  <path class="cls-1" d="M234.41,270.78h204.58v-30.88h-205.08c1.22,5.56,1.83,11.32,1.78,17.3-.04,4.66-.48,9.18-1.28,13.58Z"/>
  <path class="cls-1" d="M206.31,314.64c-1.13.77-2.29,1.48-3.48,2.16h157.33v-30.88h-130.22c-.53,1.25-1.09,2.5-1.68,3.72-4.88,10.02-12.19,18.35-21.94,25Z"/>
</svg>