<?xml version="1.0" encoding="UTF-8"?>
<svg id="Layer_1" data-name="Layer 1" xmlns="http://www.w3.org/2000/svg" viewBox="0 0 338.83 83.7">
  <defs>
    <style>
      .cls-1 {
        fill: #044192;
      }
    </style>
  </defs>
  <path class="cls-1" d="M29.19,57.05c-5.07,0-9.44-.81-13.11-2.42-3.67-1.61-6.7-3.76-9.09-6.44-2.39-2.68-4.15-5.73-5.29-9.14-1.14-3.41-1.71-6.92-1.71-10.52s.57-7.1,1.71-10.52c1.14-3.41,2.9-6.46,5.29-9.14,2.39-2.68,5.41-4.83,9.09-6.44,3.67-1.61,8.04-2.42,13.11-2.42s9.43.81,13.11,2.42c3.67,1.62,6.7,3.76,9.09,6.44,2.39,2.68,4.15,5.73,5.29,9.14,1.14,3.41,1.71,6.92,1.71,10.52s-.57,7.1-1.71,10.52c-1.14,3.41-2.9,6.46-5.29,9.14-2.39,2.68-5.42,4.83-9.09,6.44-3.67,1.61-8.04,2.42-13.11,2.42Z"/>
  <path class="cls-1" d="M91.96,44.93c.59,0,1.32-.02,2.2-.06.88-.04,1.8-.09,2.75-.17.95-.07,1.83-.18,2.64-.33.81-.15,1.43-.29,1.87-.44l6.06,11.01c-.88.29-1.96.59-3.25.88-1.29.29-2.64.51-4.07.66-1.43.15-2.86.28-4.29.39-1.43.11-2.74.17-3.91.17-5.07,0-9.44-.81-13.11-2.42-3.67-1.61-6.7-3.76-9.09-6.44-2.39-2.68-4.15-5.73-5.29-9.14-1.14-3.41-1.71-6.92-1.71-10.52s.57-7.1,1.71-10.52c1.14-3.41,2.9-6.46,5.29-9.14,2.39-2.68,5.41-4.83,9.09-6.44,3.67-1.61,8.04-2.42,13.11-2.42,1.17,0,2.48.05,3.91.17,1.43.11,2.86.24,4.29.39,1.43.15,2.79.35,4.07.61,1.28.26,2.37.57,3.25.94l-6.06,11.01c-.44-.15-1.07-.29-1.87-.44-.81-.15-1.69-.26-2.64-.33-.95-.07-1.87-.13-2.75-.17-.88-.04-1.62-.06-2.2-.06-3.52,0-6.48.81-8.87,2.42-2.39,1.62-4.19,3.63-5.4,6.06-1.21,2.42-1.8,5.07-1.76,7.93.04,2.86.64,5.51,1.82,7.93,1.17,2.42,2.95,4.44,5.34,6.06,2.39,1.62,5.34,2.42,8.87,2.42Z"/>
  <path class="cls-1" d="M133.04.33c6.53,0,11.67,1.98,15.42,5.95,3.82-3.96,8.96-5.95,15.42-5.95,7.12,0,12.57,2.3,16.35,6.88,3.78,4.59,5.67,11,5.67,19.22v29.74h-13.22V23.02c0-3.67-.92-6.35-2.75-8.04-1.84-1.69-3.85-2.53-6.06-2.53s-4.33.84-6.17,2.53c-1.84,1.69-2.75,4.37-2.75,8.04v33.15h-13.11V23.02c0-3.67-.92-6.35-2.75-8.04-1.84-1.69-3.85-2.53-6.06-2.53s-4.33.84-6.17,2.53c-1.84,1.69-2.75,4.37-2.75,8.04v33.15h-13.22v-29.74c0-8.22,1.91-14.63,5.73-19.22,3.82-4.59,9.29-6.88,16.41-6.88Z"/>
  <path class="cls-1" d="M251.78,15.58s0,0,0,0h62.7V2.8h-75.95c1.64.63,3.17,1.44,4.56,2.44,3.85,2.75,6.75,6.21,8.7,10.35Z"/>
  <path class="cls-1" d="M254.11,34.64h84.72v-12.79h-84.92c.51,2.3.76,4.69.74,7.17-.02,1.93-.2,3.8-.53,5.62Z"/>
  <path class="cls-1" d="M242.48,52.81c-.47.32-.95.61-1.44.89h65.15v-12.79h-53.92c-.22.52-.45,1.03-.7,1.54-2.02,4.15-5.05,7.6-9.09,10.35Z"/>
  <path class="cls-1" d="M244.91,21.85c-.48-2.17-1.18-4.26-2.13-6.27,0,0,0,0,0,0-1.95-4.15-4.85-7.6-8.7-10.35-1.39-.99-2.91-1.8-4.56-2.44-2.91-1.13-6.22-1.69-9.93-1.69h-29.29v82.6h13.11v-30h1.52c1.73.99,3.61,1.74,5.64,2.25,2.64.66,5.21.99,7.71.99,5.39,0,9.97-1.08,13.76-3.24.49-.28.98-.58,1.44-.89,4.04-2.75,7.07-6.2,9.09-10.35.25-.51.48-1.02.7-1.54.85-2.01,1.46-4.11,1.86-6.27.33-1.82.52-3.69.53-5.62.02-2.48-.23-4.86-.74-7.17ZM230.78,36.62c-.74,1.61-1.75,3.04-3,4.29-.54.54-1.11,1.07-1.74,1.54-2.09,1.58-4.72,2.37-7.87,2.37-1.54,0-3.18-.2-4.9-.61-1.73-.4-3.3-1.1-4.74-2.09-.52-.36-1-.77-1.46-1.21-.8-.77-1.52-1.64-2.12-2.64-.62-1.02-1.02-2.25-1.23-3.63-.12-.75-.2-1.52-.2-2.37V13.22h16.08c2.86,0,5.25.79,7.16,2.37,0,0,0,0,0,0,1.91,1.58,3.34,3.52,4.29,5.84.06.14.1.29.15.43.84,2.2,1.26,4.58,1.22,7.17-.03,1.99-.33,3.86-.9,5.62-.22.67-.46,1.34-.76,1.98Z"/>
</svg>